PathFileType	4	(X/Y/Z)	C:/Users/beibeiliu/ov580/test_trc\sequence.29_training_dense_right.trc
DataRate	CameraRate	NumFrames	NumMarkers	Units	OrigDataRate	OrigDataStartFrame	OrigNumFrames
120	120	17	19	mm	120	149	396
Frame#	Time	ThumbCMC			ThumbMCP			ThumbIP			ThumbTip			IndexMCP			IndexPIP			IndexTip			MiddleMCP			MiddlePIP			MiddleTip			RingMCP			RingPIP			RingTip			PinkyMCP			PinkyPIP			PinkyTip			BackHand1			BackHand2			BackHand3	
		X0	Y0	Z0	X1	Y1	Z1	X2	Y2	Z2	X3	Y3	Z3	X4	Y4	Z4	X5	Y5	Z5	X6	Y6	Z6	X7	Y7	Z7	X8	Y8	Z8	X9	Y9	Z9	X10	Y10	Z10	X11	Y11	Z11	X12	Y12	Z12	X13	Y13	Z13	X14	Y14	Z14	X15	Y15	Z15	X16	Y16	Z16	X17	Y17	Z17	X18	Y18	Z18	
148	1.23333	200.882	76.316	66.4017	203.651	100.585	48.8486	215.149	116.017	33.1006	220.32	126.335	19.4086	247.668	105.506	25.076	255.621	117.178	6.14956	263.572	132.181	-8.50864	252.871	90.3306	9.92324	258.873	100.79	-8.6629	261.362	114.945	-34.7962	248.752	74.361	2.2746	250.527	82.6486	-18.4376	243.533	97.1968	-36.3401	243.677	53.7721	-0.967915	242.989	62.7486	-20.5745	237.096	77.6494	-35.7951	237.374	46.4963	40.5534	225.013	33.6272	61.3692	228.974	58.7188	64.7571	
149	1.24167	205.932	83.146	69.4293	209.974	101.48	51.8091	223.325	119.282	33.6446	231.57	124.768	17.1474	253.539	101.023	23.1477	259.4	112.457	6.05186	267.389	124.043	-11.3469	255.262	88.0386	10.2523	259.315	101.175	-11.8681	258.571	112.927	-38.6805	248.179	73.3735	1.32465	245.23	83.3296	-19.487	230.057	97.8056	-39.4726	240.635	54.3731	-3.04721	237.426	64.6481	-21.3909	225.468	79.7074	-34.175	238.696	46.8811	42.9991	226.409	33.5567	61.0476	232.844	64.6746	65.3819	
150	1.25	214.013	85.1261	71.4347	222.204	105.751	51.2119	231.807	117.57	35.2209	241.77	128.713	18.6727	258.54	101.643	22.441	264.776	113.397	5.22018	270.864	127.206	-18.3745	256.978	86.0162	4.22816	257.301	99.6769	-19.2148	249.394	112.76	-42.702	245.296	70.2078	-1.04754	235.616	86.6376	-23.9257	217.605	98.8567	-29.2863	235.973	54.6668	-1.50091	229.77	65.3305	-19.3079	210.799	82.7223	-25.8681	241.202	47.7652	41.1727	228.124	37.6045	61.3594	237.997	63.7933	63.4435	
151	1.25833	224.621	88.2609	71.1282	230.047	108.425	53.3966	243.071	114.961	33.066	249.683	124.782	16.7555	261.878	98.3811	18.7346	265.447	105.872	-2.37997	269.571	119.742	-26.3758	254.033	81.3149	1.93914	252.322	97.1296	-20.9708	240.592	113.547	-39.8685	238.402	69.8813	-9.07784	222.469	87.6734	-21.6071	202.72	97.9598	-15.1745	226.628	52.1887	-5.51258	214.906	72.3348	-16.6981	196.811	86.8662	-5.53563	238.737	46.5497	39.9303	224.017	33.7701	62.2436	240.702	62.7834	62.2966	
152	1.26667	229.923	85.1059	69.4936	238.546	106.314	53.3997	252.871	117.64	30.7645	258.96	124.169	16.2531	262.598	90.453	11.3347	266.631	102.191	-9.43123	266.573	113.982	-30.7849	251.091	81.0737	-7.0665	245.69	98.4512	-24.2388	228.061	112.422	-41.6095	231.479	70.1726	-6.3765	217.329	90.8163	-12.8575	199.156	100.8	4.91993	219.086	58.4571	-3.3714	202.015	79.179	-7.33334	195.964	89.4006	10.8412	234.717	40.5294	35.6893	223.375	39.287	63.353	242.345	61.3106	61.6325	
153	1.275	236.198	84.5842	71.288	247.651	104.341	51.7209	259.949	113.401	29.0168	264.232	122.754	14.2813	265.566	90.8752	6.03298	265.314	99.5053	-14.6427	262.654	110.206	-34.942	249.375	78.8572	-4.51643	238.003	98.4956	-27.4061	221.653	120.304	-36.295	226.921	76.1133	-7.83983	208.937	95.2466	-3.52477	198.68	97.1679	21.2136	213.02	62.9089	-3.66557	200.211	84.1229	1.94996	202.29	88.7793	26.8102	233.235	41.9506	32.5668	226.134	36.6746	57.5897	243.772	57.4948	58.0713	
154	1.28333	240.361	81.3525	67.3607	252.963	100.027	47.9281	261.57	108.442	26.6205	268.742	117.138	9.34901	261.518	86.4424	-2.03992	261.969	98.99	-20.8996	255.584	110.618	-39.5514	243.905	78.0264	-10.3193	234.376	97.2056	-26.4274	215.461	123.279	-29.5258	221.412	74.2474	-6.26673	204.426	94.8579	0.218275	204.903	96.2326	29.0254	206.57	64.1325	-2.05944	198.063	85.4538	5.0178	201.054	88.1474	30.681	229.92	43.5724	32.5393	221.417	35.291	56.5604	247.812	55.1805	53.8831	
155	1.29167	243.125	75.8178	65.0517	257.245	94.6573	45.2316	265.999	103.24	22.6701	268.219	108.573	5.36394	258.358	81.2171	-5.5342	254.522	95.6064	-25.3318	252.814	109.081	-38.9721	241.862	79.198	-13.9261	227.105	100.57	-27.8042	211.019	125.731	-21.7987	215.332	73.4481	-6.25977	203.653	97.7258	5.01418	208.138	90.8899	33.3361	202.976	64.6583	-2.37699	196.598	88.0732	10.187	206.246	83.9395	34.3606	225.79	39.1037	24.7977	219.313	33.885	53.482	244.225	50.228	49.5379	
156	1.3	248.635	71.2689	61.2971	257.71	88.5399	44.3454	264.619	96.9531	21.8441	269.987	104.829	5.02104	257.391	78.6902	-8.14389	253.069	94.0989	-28.1989	248.041	109.672	-40.2674	235.576	76.5379	-15.752	230.405	99.6552	-25.4251	209.14	125.988	-15.5225	216.091	79.1552	-8.99366	208	99.7036	8.09346	212.217	89.2341	32.6501	199.23	67.498	-1.95154	199.921	89.2057	9.27717	207.885	80.9272	35.4799	223.051	39.1573	22.4119	219.226	32.747	51.8241	244.246	43.3638	43.9192	
157	1.30833	250.863	66.2069	61.4963	262.948	81.7168	36.9107	268.548	90.4884	15.5099	269.907	97.85	-1.73387	253.162	73.6597	-7.77129	252.958	92.5838	-26.4932	245.407	113.364	-40.329	234.864	77.705	-17.4284	224.039	102.878	-23.9997	210.905	127.084	-11.0666	210.471	75.7855	-7.93336	208.342	99.3212	4.80153	209.721	89.5466	32.6679	196.386	68.8669	-1.80619	199.838	90.2213	10.2713	207.534	81.6501	32.9379	218.844	35.1273	25.5894	218.76	27.6649	51.0224	244.785	41.5239	42.0677	
158	1.31667	252.406	59.4662	54.3599	264.873	75.7982	39.2997	267.844	84.3234	15.1213	273.795	93.9937	-3.12026	250.395	72.1119	-11.8882	251.322	89.9173	-24.4067	242.695	111.743	-37.872	229.878	73.247	-15.6206	224.138	100.535	-22.7237	212.728	125.993	-7.80092	210.615	75.8898	-6.91482	209.786	98.1982	6.61082	216.883	86.5726	34.7754	193.451	70.0576	0.207376	201.475	90.5389	15.0086	206.444	78.748	36.0372	215.496	34.8048	19.9845	216.249	27.9265	47.881	243.025	37.3638	38.854	
159	1.325	253.978	53.0119	57.5542	262.379	68.1963	36.0932	268.186	77.8143	17.8594	273.581	88.3735	-4.04643	250.758	71.5954	-11.3713	248.295	88.0451	-22.566	245.842	113.557	-33.5921	229.676	71.6297	-13.1491	222.38	104.634	-18.0987	216.814	125.07	-4.28015	212.055	75.3967	-3.12884	211.439	98.8651	12.9805	215.196	86.6085	37.1252	196.254	69.1575	4.11365	200.116	90.6279	19.9274	212.373	75.0765	36.0187	210.621	32.4811	24.2008	209.734	24.4482	46.7218	236.607	31.084	34.9229	
160	1.33333	250.878	48.5505	52.2195	268.123	65.4071	37.4376	274.101	75.3364	16.7972	276.332	85.4828	-2.93611	250.821	70.4743	-10.0701	247.709	89.5875	-20.8093	244.443	116.748	-30.5339	230.651	76.4308	-13.1024	227.6	105.268	-14.1833	220.222	125.563	0.633821	211.489	80.5946	-1.45844	214.961	98.0301	17.5119	218.558	81.3048	41.0432	194.226	74.1515	7.50261	203.18	89.8851	21.3168	211.282	75.1923	39.944	211.229	31.4874	24.7315	208.756	22.4102	45.3202	238.893	29.4117	37.1145	
161	1.34167	253.035	44.6153	55.4822	267.93	61.5499	35.5424	272.604	72.2643	12.9477	275.738	81.9649	1.4178	248.999	69.5014	-8.90033	245.525	91.3949	-19.0246	244.858	118.784	-25.0023	230.23	77.8097	-10.558	223.62	102.291	-10.9125	225.666	127.9	5.03962	209.843	80.461	3.5427	214.668	97.9295	23.8979	219.578	82.9568	44.3003	195.511	76.4562	11.7818	201.325	90.5634	29.1724	211.455	72.9236	45.4227	212.019	33.1818	21.9271	209.773	19.1379	49.709	237.41	25.7644	36.6686	
162	1.35	252.515	41.0519	52.2496	269.024	57.5876	35.9023	271.579	68.818	16.5658	274.484	80.4182	2.40669	245.905	69.6566	-6.47973	244.464	92.1394	-16.2177	248.848	115.225	-20.0833	226.712	79.7928	-7.59907	227.557	105.611	-6.92356	227.257	132.115	12.0873	211.687	83.1611	7.14154	217.526	98.346	27.1607	222.092	76.4708	47.4282	191.021	76.8806	14.7578	204.687	91.1408	32.7617	213.777	70.0868	46.5058	205.296	35.2944	21.3102	205.509	19.106	46.9319	236.52	28.081	32.8498	
163	1.35833	253.443	38.3905	55.0356	265.799	55.2871	33.8157	268.181	68.3682	14.8519	273.994	79.6396	2.00507	248.538	75.0859	-7.03638	246.15	94.4046	-13.0043	245.907	121.066	-17.4813	227.593	79.006	-5.09214	223.859	106.764	-2.71536	228.501	129.409	12.8156	208.307	84.4661	9.74732	214.208	98.3866	32.8953	219.279	79.5355	51.3313	193.269	79.6637	18.3832	206.264	90.8898	35.2778	216.099	68.7484	49.9042	205.951	33.8397	23.5583	204.765	19.1643	45.1895	232.423	25.6259	36.7023	
164	1.36667	247.906	36.6413	53.4113	263.255	53.5772	35.4761	266.789	66.6766	13.8173	270.447	77.0418	4.36141	241.453	71.6956	-5.79729	246.715	96.6246	-11.6348	247.341	117.005	-13.4558	224.783	81.2336	-2.88423	225.91	107.204	0.773529	226.613	131.879	18.2524	207.054	84.9287	12.4608	214.362	97.0418	34.9803	219.995	76.0738	53.8654	190.203	79.5956	20.4505	201.166	91.8378	40.0503	214.92	67.5673	52.1782	199.759	33.4936	24.3924	200.02	17.5401	50.2482	228.356	24.0594	36.8471	
